# xmcd
# 
# Track frame offsets:
#     150
#     18423
#     45339
#     72429
#     102598
#     122764
#     158447
#     180061
#     193283
#     220956
#     253372
#     287306
#     306462
#     321262
# 
# Disc length: 4594
# 
# Revision: 5
# Processed by: cddbd v1.5.2PL0 Copyright (c) Steve Scherf et al.
# Submitted via: fre:ac v1.1beta1pre4
# 
DISCID=c811f00e
DTITLE=B.B. King - Live At The BBC
DYEAR=2008
DGENRE=Blues
TTITLE0=Caldonia
TTITLE1=I Love To Live The Life
TTITLE2=Night Life
TTITLE3=When It All Comes Down (I'll Still Be Around)
TTITLE4=The Thrill Is Gone
TTITLE5=I Gotta Move Out Of This Neighbourhood
TTITLE6=When Love Comes To Town
TTITLE7=Let The Good Times Roll
TTITLE8=Stormy Monday Blues
TTITLE9=Ain't Nobody Home
TTITLE10=Five Long Years
TTITLE11=How Blue Can You Get?
TTITLE12=Paying The Cost To Be The Boss
TTITLE13=The Thrill Is Gone
EXTD=CD 2008 - Compilation\nUniversal/Island 6 00753 06314 9 [5306314]\n
EXTT0=Live At The BBC, The Hammersmith Odeon, 1978
EXTT1=Live At The BBC, The Hammersmith Odeon, 1978
EXTT2=Live At The BBC, The Hammersmith Odeon, 1978
EXTT3=Live At The BBC, The Hammersmith Odeon, 1978
EXTT4=Live At The BBC, The Hammersmith Odeon, 1978
EXTT5=Live At The BBC, Glasgow, 1991
EXTT6=Live At The BBC, Glasgow, 1991
EXTT7=Live At The BBC, Fairfield Hall, 1998
EXTT8=Live At The BBC, Fairfield Hall, 1998
EXTT9=Live At The BBC, Fairfield Hall, 1998
EXTT10=Live At The BBC, Fairfield Hall, 1998
EXTT11=Live At The BBC, Fairfield Hall, 1998
EXTT12=Live At The BBC, Andy Kershaw Show at Maida Vale, 1989
EXTT13=Live At The BBC, Andy Kershaw Show at Maida Vale, 1989
PLAYORDER=
